HIERARCHY
ROOT root
{
	OFFSET 0.000000 0.000000 0.000000
	CHANNELS 6 Xposition Yposition Zposition Zrotation Yrotation Xrotation
	JOINT lhip
	{
		OFFSET 0.058581 -0.082280 -0.017664
		CHANNELS 3 Zrotation Yrotation Xrotation
		JOINT lknee
		{
			OFFSET 0.043451 -0.386469 0.008037
			CHANNELS 3 Zrotation Yrotation Xrotation
			JOINT lankle
			{
				OFFSET -0.014790 -0.426874 -0.037428
				CHANNELS 3 Zrotation Yrotation Xrotation
				JOINT ltoe
				{
					OFFSET 0.041054 -0.060286 0.122042
					CHANNELS 3 Zrotation Yrotation Xrotation
					End Site
					{
						OFFSET 0.000000 0.000000 0.000000
					}
				}
			}
		}
	}
	JOINT rhip
	{
		OFFSET -0.060310 -0.090513 -0.013543
		CHANNELS 3 Zrotation Yrotation Xrotation
		JOINT rknee
		{
			OFFSET -0.043257 -0.383688 -0.004843
			CHANNELS 3 Zrotation Yrotation Xrotation
			JOINT rankle
			{
				OFFSET 0.019056 -0.420046 -0.034562
				CHANNELS 3 Zrotation Yrotation Xrotation
				JOINT rtoe
				{
					OFFSET -0.034840 -0.062106 0.130323
					CHANNELS 3 Zrotation Yrotation Xrotation
					End Site
					{
						OFFSET 0.000000 0.000000 0.000000
					}
				}
			}
		}
	}
	JOINT lowerback
	{
		OFFSET 0.004439 0.124404 -0.038385
		CHANNELS 3 Zrotation Yrotation Xrotation
		JOINT upperback
		{
			OFFSET 0.004488 0.137956 0.026820
			CHANNELS 3 Zrotation Yrotation Xrotation
			JOINT chest
			{
				OFFSET -0.002265 0.056032 0.002855
				CHANNELS 3 Zrotation Yrotation Xrotation
				JOINT lowerneck
				{
					OFFSET -0.013390 0.211636 -0.033468
					CHANNELS 3 Zrotation Yrotation Xrotation
					JOINT upperneck
					{
						OFFSET 0.010113 0.088937 0.050410
						CHANNELS 3 Zrotation Yrotation Xrotation
						End Site
						{
							OFFSET 0.000000 0.000000 0.000000
						}
					}
				}
				JOINT lclavicle
				{
					OFFSET 0.071702 0.114000 -0.018898
					CHANNELS 3 Zrotation Yrotation Xrotation
					JOINT lshoulder
					{
						OFFSET 0.122921 0.045205 -0.019046
						CHANNELS 3 Zrotation Yrotation Xrotation
						JOINT lelbow
						{
							OFFSET 0.255332 -0.015649 -0.022946
							CHANNELS 3 Zrotation Yrotation Xrotation
							JOINT lwrist
							{
								OFFSET 0.265709 0.012698 -0.007375
								CHANNELS 3 Zrotation Yrotation Xrotation
								End Site
								{
									OFFSET 0.000000 0.000000 0.000000
								}
							}
						}
					}
				}
				JOINT rclavicle
				{
					OFFSET -0.082954 0.112472 -0.023707
					CHANNELS 3 Zrotation Yrotation Xrotation
					JOINT rshoulder
					{
						OFFSET -0.113228 0.046853 -0.008472
						CHANNELS 3 Zrotation Yrotation Xrotation
						JOINT relbow
						{
							OFFSET -0.260127 -0.014369 -0.031269
							CHANNELS 3 Zrotation Yrotation Xrotation
							JOINT rwrist
							{
								OFFSET -0.269108 0.006794 -0.006027
								CHANNELS 3 Zrotation Yrotation Xrotation
								End Site
								{
									OFFSET 0.000000 0.000000 0.000000
								}
							}
						}
					}
				}
			}
		}
	}
}
MOTION
Frames: 10
Frame Time: 0.033333
0.208149 0.748815 0.969328 -47.018435 0.824030 89.014554 17.008410 4.599456 -17.725982 -2.423217 -0.373573 9.434861 -3.238736 6.207505 -6.153581 0.000000 -0.000000 0.000000 -1.088257 -9.485380 -3.326926 10.344698 -14.658195 6.741141 0.449700 -7.537834 -18.966744 0.000000 -0.000000 0.000000 0.052008 3.619656 16.799801 1.301863 -0.822155 -8.261832 2.636840 -0.897911 1.454384 0.517280 1.039763 -10.001115 -1.938359 -9.092334 10.637553 -26.454288 1.166377 -1.519125 -49.967196 -7.916705 4.546231 15.574785 -24.275654 -6.239213 6.881289 -3.900368 -4.241766 24.902703 2.620181 -2.292695 43.593845 7.407050 8.860462 -4.224230 34.405046 4.490776 3.245052 4.699453 -8.107827 
0.207774 0.747593 0.969052 -47.238673 0.748053 89.041469 16.968854 4.126806 -18.469794 -2.695932 -0.635821 11.320393 -2.784173 6.241608 -8.102592 0.000000 -0.000000 0.000000 -1.226083 -9.560029 -3.124682 10.449403 -14.092317 6.420366 0.947012 -7.730191 -18.786270 0.000000 -0.000000 0.000000 -0.135144 3.922069 16.723940 1.246971 -0.961178 -8.248083 2.576193 -1.038317 1.820263 0.668490 0.945969 -10.477767 -2.062260 -8.979742 10.604055 -26.512151 1.315262 -1.712665 -49.983110 -7.942189 4.302069 15.373037 -24.497949 -5.982696 7.448220 -4.415806 -3.813584 24.835818 2.764067 -2.790380 41.863779 8.573868 9.040536 -3.981919 38.237013 7.431075 3.488078 5.206036 -5.093382 
0.207683 0.746447 0.969120 -47.591380 0.703176 89.033267 17.004126 3.330074 -19.275378 -3.022046 -0.784504 13.458488 -2.228784 6.409514 -10.474493 0.000000 -0.000000 0.000000 -1.361479 -9.652498 -2.954067 10.472827 -13.676921 6.231566 1.396942 -7.708163 -18.654312 0.000000 -0.000000 0.000000 -0.295971 4.245151 16.828524 1.144192 -1.152826 -8.585133 2.452988 -1.020533 2.322480 0.993321 0.924547 -10.761913 -2.096127 -8.984278 10.551714 -26.561505 1.079092 -1.810069 -49.923425 -7.700665 4.281650 15.164678 -24.609161 -6.067342 9.062367 -4.868547 -3.857194 24.688973 3.181309 -3.386848 39.725758 10.191229 8.696675 -5.596564 42.563467 7.638042 0.768280 6.483913 -1.600890 
0.207104 0.743030 0.969144 -48.349478 0.636797 88.796742 16.798025 2.237658 -20.063395 -3.586765 -1.354362 16.740544 -1.680695 5.801589 -14.088718 0.000000 -0.000000 0.000000 -1.712799 -9.636796 -2.160915 10.608721 -12.940855 5.536664 1.942550 -7.666437 -18.417256 0.000000 -0.000000 0.000000 -0.411808 4.778704 16.952002 0.982632 -1.375691 -8.662583 2.152959 -0.755787 2.700348 1.835229 0.751448 -10.901328 -2.531960 -9.095782 10.770047 -26.622906 0.764306 -2.222701 -49.909219 -7.320731 4.035929 14.757909 -24.395313 -6.040029 11.332069 -5.400942 -3.576132 23.908759 3.939203 -4.674091 36.475995 13.593093 6.631169 -13.220976 49.506222 0.137241 -4.799415 8.894359 -0.147123 
0.206883 0.741663 0.969203 -48.641202 0.665598 88.739338 16.775808 1.949000 -20.329575 -3.804331 -1.547876 17.812588 -1.575880 5.437115 -15.199210 0.000000 -0.000000 0.000000 -1.693758 -9.591259 -2.006893 10.481444 -12.647781 5.439353 2.056337 -7.677018 -18.308517 0.000000 -0.000000 0.000000 -0.440753 4.970980 16.901735 0.962388 -1.431595 -8.599244 2.029541 -0.642944 2.788475 2.229422 0.767840 -10.913738 -2.737965 -9.089536 10.848170 -26.648592 0.591154 -2.356879 -49.920812 -7.141772 4.008500 14.722107 -24.333079 -6.025942 12.319331 -5.560317 -3.835642 23.748996 4.351300 -5.167753 35.191722 15.075913 5.461646 -17.887510 51.417312 -4.665796 -7.506903 9.807275 0.052759 
0.206823 0.738383 0.969565 -49.077084 0.675297 88.576784 16.515476 1.266643 -20.768610 -4.340366 -2.258693 19.766188 -1.454486 4.382843 -17.222144 0.000000 -0.000000 0.000000 -1.888865 -9.630472 -1.495343 10.415997 -12.167083 5.040322 2.374183 -7.590012 -18.091190 0.000000 -0.000000 0.000000 -0.570748 5.348602 17.018378 0.946254 -1.661358 -8.743520 1.773398 -0.338906 2.936541 3.195977 1.060157 -10.981338 -3.146614 -9.100001 11.265600 -26.727102 0.261635 -2.694024 -49.796993 -6.788966 3.759250 14.659593 -24.216602 -5.855321 13.460188 -6.070974 -3.968450 23.453153 5.399631 -6.356261 32.374030 18.710997 2.425455 -30.150829 53.291004 -17.073483 -12.108669 11.758956 0.855738 
0.206496 0.734145 0.969623 -49.572814 0.757848 88.378519 16.150716 0.992332 -21.124653 -5.197235 -3.426489 21.708146 -2.096095 2.810536 -18.843150 0.000000 -0.000000 0.000000 -2.139905 -9.740110 -0.893063 10.398990 -11.817127 4.644039 2.665141 -7.192155 -17.800588 0.000000 -0.000000 0.000000 -0.577130 5.763083 17.063704 0.900227 -1.841143 -8.778052 1.444673 -0.014252 2.948126 4.430908 1.396517 -11.051009 -3.558766 -9.351408 11.828428 -26.618849 -0.234414 -3.120524 -49.849012 -6.138460 3.779940 14.801730 -24.025461 -5.765727 15.602672 -6.261792 -4.455655 22.859094 6.831692 -7.964982 29.211434 23.195857 -1.795911 -42.942683 52.239474 -31.280315 -18.064051 12.066345 -0.936432 
0.206260 0.728988 0.969368 -50.133652 0.929715 88.183928 15.711908 0.904419 -21.388015 -5.650615 -3.962194 23.498145 -2.497517 1.765163 -19.840078 0.000000 -0.000000 0.000000 -2.248497 -9.790371 -0.339446 10.168569 -11.536411 4.240713 2.853046 -6.818870 -17.345633 0.000000 -0.000000 0.000000 -0.405053 6.116206 16.798867 0.773907 -1.958698 -8.341716 1.005911 0.304517 2.751423 6.044552 1.657870 -10.697118 -4.223326 -9.564739 12.316967 -26.428922 -0.737983 -3.440497 -49.870825 -5.377609 3.962550 15.195582 -24.247153 -5.407781 17.335632 -5.793558 -5.558286 21.904695 8.699923 -9.733803 25.490033 28.859715 -7.248699 -52.935691 48.629816 -45.198461 -25.134877 9.387261 -7.224882 
0.205519 0.722832 0.968827 -50.562548 1.137562 88.039590 14.979212 1.401114 -21.773821 -5.571641 -4.964770 25.457821 -3.517502 0.429237 -21.146208 0.000000 -0.000000 0.000000 -2.399877 -10.487270 0.006011 9.634441 -12.105706 4.406615 3.178644 -5.022436 -17.610370 0.000000 -0.000000 0.000000 -0.543237 6.744254 17.122872 0.696308 -2.571788 -9.953946 0.984102 0.639404 3.592760 7.494567 2.169722 -9.847550 -4.278754 -10.383444 12.761844 -26.399353 -1.912359 -3.345211 -49.815531 -3.667173 3.723453 16.462350 -25.152034 -4.916249 17.500813 -4.084174 -6.780696 21.615428 11.020852 -10.121870 17.891196 34.788315 -18.067041 -57.530652 47.482697 -56.539957 -37.761903 1.359202 -17.451798 
0.205313 0.714796 0.969142 -51.028374 1.376969 87.685352 14.271743 1.371949 -21.241664 -4.785088 -5.348752 25.799306 -3.440293 0.652149 -20.710784 0.000000 -0.000000 0.000000 -2.558669 -10.865269 0.821301 9.237555 -11.750578 4.014069 3.470571 -4.388230 -17.306081 0.000000 -0.000000 0.000000 0.047306 6.944550 17.804947 0.003713 -2.626734 -10.852906 0.717774 0.724679 3.540766 8.804866 2.280312 -9.759073 -4.342868 -10.158387 13.593815 -26.267883 -2.629247 -4.155088 -49.425671 -1.960977 4.217200 16.798102 -25.590741 -4.960748 20.259881 -3.594393 -8.004639 19.625284 13.149062 -12.126966 13.237286 39.379163 -24.418566 -63.595693 44.670668 -69.586586 -46.282376 -6.263367 -23.303352 
